<svg xmlns="http://www.w3.org/2000/svg" width="500" height="500" style="width:100%;height:100%;transform:translate3d(0,0,0);content-visibility:visible" viewBox="0 0 500 500"><defs><clipPath id="c"><path d="M0 0h500v500H0z"/></clipPath><filter id="a" width="100%" height="100%" x="0%" y="0%" filterUnits="objectBoundingBox"><feComponentTransfer in="SourceGraphic"><feFuncA tableValues="1.0 0.0" type="table"/></feComponentTransfer></filter><mask id="d" mask-type="alpha"><g filter="url(#a)"><path fill="#fff" d="M0 0h500v500H0z" opacity="0"/><use xmlns:ns1="http://www.w3.org/1999/xlink" ns1:href="#b"/></g></mask><g id="b" style="display:block"><path fill="#fff" d="M383.432 250H250v133.432h133.432V250z"/><path fill-opacity="0" stroke="#fff" stroke-linecap="round" stroke-linejoin="round" stroke-width="28.91" d="M383.432 250H250v133.432h133.432V250z"/></g></defs><g clip-path="url(#c)"><g mask="url(#d)" style="display:block"><path fill="none" stroke="#fff" stroke-linecap="round" stroke-linejoin="round" stroke-width="12.04" d="M152.938 178.859v-25.92h25.92m-25.92 0 74.432 74.432m72.488-110.803h-16.144m-25.643 0h-16.144m99.718 0h-16.144m-109.217 0H200.14m-25.643 0h-16.144m-41.787 141.505v-16.145m0-25.642v-16.145m0 99.718v-16.144m0-109.216v-16.144m266.835 99.776v-16.144m0-25.672v-16.144m0 99.777v-16.145m0-109.304v-16.144M132.68 116.568h-16.114v14.887m250.721-14.887h16.114v14.887M200.109 383.551h16.144m25.643 0h16.144m-99.718 0h16.144m109.217 0h16.144m25.643 0h16.144m41.787-57.931v16.144M116.566 325.62v16.144m250.721 41.787h16.114v-14.888M132.68 383.551h-16.114v-14.888"/></g><path fill="none" stroke="#00b2df" stroke-linecap="round" stroke-linejoin="round" stroke-width="12.04" d="M66.716-66.716H-66.716V66.716H66.716V-66.716z" style="display:block" transform="translate(316.716 316.716)"/><g class="com" style="display:none"><path/><path/><path/><path/><path/><path/><path/><path/><path/><path/><path/><path/></g></g></svg>